ply
format ascii 1.0
comment Created by Blender 2.79 (sub 0) - www.blender.org, source file: 'Circle.blend'
element vertex 72
property float x
property float y
property float z
property uchar red
property uchar green
property uchar blue
element face 32
property list uchar uint vertex_indices
end_header
-2.383100 -22.000000 44.619396 227 186 21
0.000001 -22.000000 43.767372 227 186 21
-0.469683 -22.000000 45.000000 227 186 21
1.427227 -22.000000 43.483482 227 186 21
1.443732 -22.000000 44.619400 227 186 21
1.443734 -22.000000 35.380600 156 242 21
0.000000 -22.000000 36.308323 156 242 21
-0.469683 -22.000000 35.000000 156 242 21
-4.005217 -22.000000 43.535534 227 186 21
-1.427227 -22.000000 43.483479 227 186 21
3.065850 -22.000000 36.464466 156 242 21
1.427227 -22.000000 36.592213 156 242 21
-5.089080 -22.000000 41.913418 227 186 21
-2.637172 -22.000000 42.675018 227 186 21
4.149714 -22.000000 38.086582 227 48 21
2.637173 -22.000000 37.400673 227 48 21
3.065850 -22.000000 36.464466 227 48 21
-5.469682 -22.000000 40.000000 227 186 21
-3.445632 -22.000000 41.465076 227 186 21
4.530317 -22.000000 40.000000 227 48 21
3.445632 -22.000000 38.610619 227 48 21
-5.089080 -22.000000 38.086582 156 242 21
-3.729526 -22.000000 40.037846 156 242 21
-5.469682 -22.000000 40.000000 156 242 21
4.149714 -22.000000 41.913418 227 48 21
3.729526 -22.000000 40.037846 227 48 21
-4.005217 -22.000000 36.464466 156 242 21
-3.445632 -22.000000 38.610619 156 242 21
3.065850 -22.000000 43.535534 227 48 21
3.445632 -22.000000 41.465076 227 48 21
-2.383100 -22.000000 35.380604 156 242 21
-2.637172 -22.000000 37.400673 156 242 21
-4.005217 -22.000000 36.464466 176 245 69
1.443732 -22.000000 44.619400 227 48 21
2.637173 -22.000000 42.675022 227 48 21
-1.427227 -22.000000 36.592216 156 242 21
-2.383100 -22.000000 44.619396 227 126 21
-1.427227 -22.000000 43.483479 227 126 21
0.000001 -22.000000 43.767372 227 126 21
-0.469683 -22.000000 45.000000 227 126 21
1.427227 -22.000000 43.483482 227 126 21
1.443734 -22.000000 35.380600 42 197 21
1.427227 -22.000000 36.592213 42 197 21
0.000000 -22.000000 36.308323 42 197 21
-4.005217 -22.000000 43.535534 227 126 21
-2.637172 -22.000000 42.675018 227 126 21
3.065850 -22.000000 36.464466 187 6 21
2.637173 -22.000000 37.400673 187 6 21
1.427227 -22.000000 36.592213 187 6 21
-5.089080 -22.000000 41.913418 227 126 21
-3.445632 -22.000000 41.465076 227 126 21
4.149714 -22.000000 38.086582 187 6 21
3.445632 -22.000000 38.610619 187 6 21
-5.469682 -22.000000 40.000000 42 197 21
-3.729526 -22.000000 40.037846 42 197 21
-3.445632 -22.000000 41.465076 42 197 21
4.530317 -22.000000 40.000000 187 6 21
3.729526 -22.000000 40.037846 187 6 21
-5.089080 -22.000000 38.086582 42 197 21
-3.445632 -22.000000 38.610619 42 197 21
4.149714 -22.000000 41.913418 187 6 21
3.445632 -22.000000 41.465076 187 6 21
-4.005217 -22.000000 36.464466 42 197 21
-2.637172 -22.000000 37.400673 42 197 21
3.065850 -22.000000 43.535534 187 6 21
2.637173 -22.000000 42.675022 187 6 21
-2.383100 -22.000000 35.380604 42 197 21
-1.427227 -22.000000 36.592216 42 197 21
-2.637172 -22.000000 37.400673 45 198 24
1.443732 -22.000000 44.619400 227 126 21
2.637173 -22.000000 42.675022 227 126 21
-0.469683 -22.000000 35.000000 42 197 21
3 0 1 2
3 2 3 4
3 5 6 7
3 8 9 0
3 10 11 5
3 12 13 8
3 14 15 16
3 17 18 12
3 19 20 14
3 21 22 23
3 24 25 19
3 26 27 21
3 28 29 24
3 30 31 32
3 33 34 28
3 7 35 30
3 36 37 38
3 39 38 40
3 41 42 43
3 44 45 37
3 46 47 48
3 49 50 45
3 51 52 47
3 53 54 55
3 56 57 52
3 58 59 54
3 60 61 57
3 62 63 59
3 64 65 61
3 66 67 68
3 69 40 70
3 71 43 67
