ply
format ascii 1.0
comment Created by Blender 2.79 (sub 0) - www.blender.org, source file: 'Credit.blend'
element vertex 385
property float x
property float y
property float z
property uchar red
property uchar green
property uchar blue
element face 176
property list uchar uint vertex_indices
end_header
-0.879424 0.381120 34.999996 177 243 4
-0.794684 0.409979 34.999996 177 243 4
-0.879424 0.409979 34.999996 177 243 4
-0.794684 0.381120 34.999996 177 243 4
-0.765825 0.296473 34.999996 177 243 4
-0.765825 0.381120 34.999996 177 243 4
-0.879424 0.265888 34.999996 68 185 4
-0.794684 0.296473 34.999996 68 185 4
-0.879424 0.296473 34.999996 68 185 4
-0.879424 0.381120 34.999996 68 185 4
-0.879424 0.409979 34.999996 68 185 4
-0.908386 0.381120 34.999996 68 185 4
-0.794684 0.265888 34.999996 68 185 4
-0.765825 0.296473 34.999996 68 185 4
-0.794684 0.381120 34.999996 68 185 4
-0.765825 0.381120 34.999996 68 185 4
-0.794684 0.409979 34.999996 68 185 4
-0.879424 0.265888 34.999996 177 243 4
-0.794684 0.265888 34.999996 177 243 4
-0.794684 0.296473 34.999996 177 243 4
-0.908386 0.381120 34.999996 177 243 4
-0.908386 0.296473 34.999996 177 243 4
-0.879424 0.296473 34.999996 177 243 4
-0.908386 0.296473 34.999996 68 185 4
-0.584941 0.333276 34.999996 177 243 4
-0.564851 0.265888 34.999996 177 243 4
-0.564851 0.333276 34.999996 177 243 4
-0.584941 0.357471 34.999996 177 243 4
-0.584941 0.337815 34.999996 177 243 4
-0.564851 0.357471 34.999996 177 243 4
-0.739634 0.265888 34.999996 177 243 4
-0.727739 0.294729 34.999996 177 243 4
-0.759776 0.265888 34.999996 177 243 4
-0.759776 0.265888 34.999996 68 185 4
-0.727739 0.294729 34.999996 68 185 4
-0.759776 0.333276 34.999996 68 185 4
-0.759776 0.333276 34.999996 177 243 4
-0.744710 0.333276 34.999996 176 241 5
-0.740554 0.322546 34.999996 68 185 4
-0.730674 0.333276 34.999996 68 185 4
-0.694434 0.333276 34.999996 177 243 4
-0.730674 0.333276 34.999996 177 243 4
-0.635103 0.304321 34.999996 177 243 4
-0.617953 0.333276 34.999996 177 243 4
-0.635103 0.333276 34.999996 177 243 4
-0.617953 0.304321 34.999996 177 243 4
-0.589408 0.287263 34.999996 177 243 4
-0.589408 0.304321 34.999996 177 243 4
-0.635103 0.258332 34.999996 68 185 4
-0.617953 0.287263 34.999996 68 185 4
-0.635103 0.287263 34.999996 68 185 4
-0.635103 0.304321 34.999996 68 185 4
-0.635103 0.333276 34.999996 68 185 4
-0.664065 0.304321 34.999996 68 185 4
-0.617953 0.258332 34.999996 68 185 4
-0.589408 0.287263 34.999996 68 185 4
-0.617953 0.304321 34.999996 68 185 4
-0.589408 0.304321 34.999996 68 185 4
-0.617953 0.333276 34.999996 68 185 4
-0.635103 0.258332 34.999996 177 243 4
-0.617953 0.258332 34.999996 177 243 4
-0.617953 0.287263 34.999996 177 243 4
-0.664065 0.304321 34.999996 177 243 4
-0.664065 0.287263 34.999996 177 243 4
-0.635103 0.287263 34.999996 177 243 4
-0.664065 0.287263 34.999996 68 185 4
-0.617953 0.236374 34.999996 68 185 4
-0.589408 0.236374 34.999996 69 185 4
-0.589408 0.236374 34.999996 177 243 4
-0.617953 0.236374 34.999996 177 243 4
-0.610645 0.196215 34.999996 177 243 4
-0.610645 0.196215 34.999996 68 185 4
-0.637059 0.220028 34.999996 68 185 4
-0.649684 0.196215 34.999996 94 199 4
-0.664800 0.236374 34.999996 68 185 4
-0.493338 0.265888 34.999996 69 185 5
-0.504926 0.333276 34.999996 68 185 4
-0.523342 0.265888 34.999996 68 185 4
-0.540724 0.333276 34.999996 177 243 4
-0.560520 0.333276 34.999996 177 243 4
-0.535758 0.306528 34.999996 178 243 6
-0.535758 0.306528 34.999996 68 185 4
-0.560520 0.333276 34.999996 68 185 4
-0.539482 0.286042 34.999996 68 185 4
-0.560520 0.265888 34.999996 177 243 5
-0.539482 0.286042 34.999996 177 243 4
-0.540103 0.265888 34.999996 68 185 4
-0.560520 0.265888 34.999996 68 185 4
-0.523342 0.265888 34.999996 177 243 4
-0.504926 0.333276 34.999996 177 243 4
-0.527067 0.286456 34.999996 177 243 5
-0.527067 0.286456 34.999996 177 243 4
-0.535758 0.306528 34.999996 177 243 4
-0.527067 0.286456 34.999996 68 185 4
-0.564851 0.265888 34.999996 68 185 4
-0.584941 0.333276 34.999996 68 185 4
-0.584941 0.265888 34.999996 68 185 4
-0.564851 0.357471 34.999996 68 185 4
-0.584941 0.337815 34.999996 68 185 4
-0.564851 0.337815 34.999996 68 185 4
-0.637059 0.220028 34.999996 177 243 4
-0.610645 0.196215 34.999996 177 242 4
-0.623194 0.220357 34.999996 177 243 4
-0.664800 0.236374 34.999996 177 243 4
-0.643472 0.236374 34.999996 177 243 4
-0.623194 0.220357 34.999996 68 185 4
-0.689949 0.333276 34.999996 177 243 4
-0.669859 0.265888 34.999996 177 243 4
-0.669859 0.333276 34.999996 177 243 4
-0.689949 0.357471 34.999996 177 243 4
-0.689949 0.337815 34.999996 177 243 4
-0.669859 0.357471 34.999996 177 243 4
-0.669859 0.265888 34.999996 68 185 4
-0.689949 0.333276 34.999996 68 185 4
-0.689949 0.265888 34.999996 68 185 4
-0.669859 0.357471 34.999996 68 185 4
-0.689949 0.337815 34.999996 68 185 4
-0.669859 0.337815 34.999996 68 185 4
-0.468794 0.311675 34.999996 177 243 4
-0.449669 0.333276 34.999996 177 243 4
-0.468794 0.333276 34.999996 177 243 4
-0.449669 0.311675 34.999996 177 243 4
-0.426062 0.291167 34.999996 177 243 4
-0.425758 0.311675 34.999996 177 243 4
-0.468794 0.265888 34.999996 68 185 4
-0.449669 0.290719 34.999996 68 185 4
-0.468794 0.290719 34.999996 68 185 4
-0.468794 0.311675 34.999996 68 185 4
-0.468794 0.333276 34.999996 68 185 4
-0.492808 0.311675 34.999996 68 185 4
-0.449669 0.265556 34.999996 68 185 4
-0.426062 0.291167 34.999996 68 185 4
-0.449669 0.311675 34.999996 68 185 4
-0.425758 0.311675 34.999996 68 185 4
-0.449669 0.333276 34.999996 68 185 4
-0.468794 0.265888 34.999996 177 243 4
-0.449669 0.265556 34.999996 177 243 4
-0.449669 0.290719 34.999996 177 243 4
-0.492808 0.311675 34.999996 177 243 4
-0.492808 0.290719 34.999996 177 243 4
-0.468794 0.290719 34.999996 177 243 4
-0.492808 0.290719 34.999996 68 185 4
-0.425758 0.265556 34.999996 68 185 4
-0.438878 0.265759 34.999996 68 185 4
-0.438878 0.265759 34.999996 177 243 4
-0.441449 0.274474 34.999996 177 243 4
-0.421194 0.401734 34.999996 177 243 4
-0.401112 0.266004 34.999996 177 243 4
-0.401112 0.401734 34.999996 177 243 4
-0.401112 0.266004 34.999996 68 185 4
-0.421194 0.401734 34.999996 68 185 4
-0.421194 0.266004 34.999996 68 185 4
-0.391189 0.266004 34.999996 177 243 4
-0.391189 0.285832 34.999996 177 243 4
-0.391189 0.285832 34.999996 68 185 4
-0.401112 0.285832 34.999996 68 185 4
-0.388105 0.401734 34.999996 177 243 4
-0.368024 0.266004 34.999996 177 243 4
-0.368024 0.401734 34.999996 177 243 4
-0.368024 0.266004 34.999996 68 185 4
-0.388105 0.401734 34.999996 68 185 4
-0.388105 0.266004 34.999996 68 185 4
-0.358101 0.266004 34.999996 177 243 4
-0.358101 0.285832 34.999996 177 243 4
-0.358101 0.285832 34.999996 68 185 4
-0.368024 0.285832 34.999996 68 185 4
-0.306656 0.333276 34.999996 177 243 4
-0.278111 0.287263 34.999996 177 243 4
-0.278111 0.333276 34.999996 177 243 4
-0.323806 0.258332 34.999996 68 185 4
-0.306656 0.287263 34.999996 68 185 4
-0.323806 0.287263 34.999996 68 185 4
-0.306656 0.258332 34.999996 68 185 4
-0.278111 0.287263 34.999996 68 185 4
-0.306656 0.333276 34.999996 68 185 4
-0.323806 0.258332 34.999996 177 243 4
-0.306656 0.258332 34.999996 177 243 4
-0.306656 0.287263 34.999996 177 243 4
-0.352768 0.333276 34.999996 68 185 4
-0.323806 0.333276 34.999996 68 185 4
-0.352768 0.333276 34.999996 177 243 4
-0.352768 0.287263 34.999996 177 243 4
-0.323806 0.287263 34.999996 177 243 4
-0.352768 0.287263 34.999996 68 185 4
-0.306656 0.236374 34.999996 68 185 4
-0.278111 0.236374 34.999996 69 185 4
-0.278111 0.236374 34.999996 177 243 4
-0.306656 0.236374 34.999996 177 243 4
-0.299349 0.196215 34.999996 177 243 4
-0.299349 0.196215 34.999996 68 185 4
-0.325762 0.220028 34.999996 68 185 4
-0.338387 0.196215 34.999996 94 199 4
-0.353503 0.236374 34.999996 68 185 4
-0.325762 0.220028 34.999996 177 243 4
-0.299349 0.196215 34.999996 177 242 4
-0.311897 0.220357 34.999996 177 243 4
-0.353503 0.236374 34.999996 177 243 4
-0.332175 0.236374 34.999996 177 243 4
-0.311897 0.220357 34.999996 68 185 4
-0.205127 0.304321 34.999996 177 243 4
-0.187978 0.333276 34.999996 177 243 4
-0.205127 0.333276 34.999996 177 243 4
-0.187978 0.304321 34.999996 177 243 4
-0.159432 0.287263 34.999996 177 243 4
-0.159432 0.304321 34.999996 177 243 4
-0.205127 0.258332 34.999996 68 185 4
-0.187978 0.287263 34.999996 68 185 4
-0.205127 0.287263 34.999996 68 185 4
-0.205127 0.304321 34.999996 68 185 4
-0.205127 0.333276 34.999996 68 185 4
-0.234043 0.304321 34.999996 68 185 4
-0.187978 0.258332 34.999996 68 185 4
-0.159432 0.287263 34.999996 68 185 4
-0.187978 0.304321 34.999996 68 185 4
-0.159432 0.304321 34.999996 68 185 4
-0.187978 0.333276 34.999996 68 185 4
-0.205127 0.258332 34.999996 177 243 4
-0.187978 0.258332 34.999996 177 243 4
-0.187978 0.287263 34.999996 177 243 4
-0.234043 0.304321 34.999996 177 243 4
-0.234043 0.287263 34.999996 177 243 4
-0.205127 0.287263 34.999996 177 243 4
-0.234043 0.287263 34.999996 68 185 4
-0.234043 0.333276 34.999996 177 243 4
-0.234043 0.333276 34.999996 68 185 4
-0.234043 0.401991 34.999996 68 185 4
-0.234043 0.401991 34.999996 177 243 4
-0.205127 0.401991 34.999996 177 243 4
-0.104096 0.333276 34.999996 177 243 4
-0.075550 0.287263 34.999996 177 243 4
-0.075550 0.333276 34.999996 177 243 4
-0.121245 0.258332 34.999996 68 185 4
-0.104096 0.287263 34.999996 68 185 4
-0.121245 0.287263 34.999996 68 185 4
-0.104096 0.258332 34.999996 68 185 4
-0.075550 0.287263 34.999996 68 185 4
-0.104096 0.333276 34.999996 68 185 4
-0.121245 0.258332 34.999996 177 243 4
-0.104096 0.258332 34.999996 177 243 4
-0.104096 0.287263 34.999996 177 243 4
-0.150208 0.333276 34.999996 68 185 4
-0.121245 0.333276 34.999996 68 185 4
-0.150208 0.333276 34.999996 177 243 4
-0.150208 0.287263 34.999996 177 243 4
-0.121245 0.287263 34.999996 177 243 4
-0.150208 0.287263 34.999996 68 185 4
-0.104096 0.236374 34.999996 68 185 4
-0.075550 0.236374 34.999996 69 185 4
-0.075550 0.236374 34.999996 177 243 4
-0.104096 0.236374 34.999996 177 243 4
-0.096788 0.196215 34.999996 177 243 4
-0.096788 0.196215 34.999996 68 185 4
-0.123201 0.220028 34.999996 68 185 4
-0.135826 0.196215 34.999996 94 199 4
-0.150942 0.236374 34.999996 68 185 4
-0.123201 0.220028 34.999996 177 243 4
-0.096788 0.196215 34.999996 177 242 4
-0.109336 0.220357 34.999996 177 243 4
-0.150942 0.236374 34.999996 177 243 4
-0.129614 0.236374 34.999996 177 243 4
-0.109336 0.220357 34.999996 68 185 4
-0.847327 -0.254139 35.000000 227 62 32
-0.806272 -0.205885 35.000000 227 62 32
-0.806272 0.044216 35.000000 227 62 32
-0.847327 0.084852 35.000000 227 62 32
-0.694461 0.084852 35.000000 227 62 32
-0.806272 -0.205885 35.000000 190 43 53
-0.847327 -0.254139 35.000000 190 43 53
-0.736929 -0.205885 35.000000 190 43 53
-0.737727 0.044216 35.000000 227 62 32
-0.573104 -0.063766 35.000000 227 62 32
-0.549480 -0.063766 35.000000 227 62 32
-0.418024 -0.254139 35.000000 227 62 32
-0.385655 -0.205885 35.000000 227 62 32
-0.736929 -0.205885 35.000000 227 62 32
-0.626509 -0.063955 35.000000 227 62 32
-0.295785 0.051227 35.000000 227 62 32
-0.428124 0.084852 35.000000 227 62 32
-0.384857 0.044216 35.000000 227 62 32
-0.573104 -0.063766 35.000000 190 43 53
-0.737727 0.044216 35.000000 190 43 53
-0.626509 -0.063955 35.000000 190 43 53
-0.295785 -0.179439 35.000000 227 62 32
-0.295785 -0.216101 35.000000 227 62 32
-0.428124 0.084852 35.000000 190 43 53
-0.549480 -0.063766 35.000000 190 43 53
-0.384857 0.044216 35.000000 190 43 53
0.003259 -0.003587 35.000000 190 43 53
-0.109548 -0.051404 35.000000 190 43 53
-0.082549 -0.103441 35.000000 190 43 53
-0.385655 -0.205885 35.000000 190 43 53
-0.496075 -0.063955 35.000000 190 43 53
-0.496075 -0.063955 35.000000 227 62 32
-0.183207 -0.051404 35.000000 190 43 53
-0.225315 0.084852 35.000000 227 62 32
-0.183207 0.034817 35.000000 227 62 32
-0.072449 0.084852 35.000000 227 62 32
-0.183207 -0.103441 35.000000 227 62 32
-0.082549 -0.103441 35.000000 227 62 32
-0.183207 -0.051404 35.000000 227 62 32
-0.103632 0.034817 35.000000 227 62 32
0.003259 -0.003587 35.000000 227 62 32
-0.109548 -0.051404 35.000000 227 62 32
-0.059544 -0.003587 35.000000 227 62 32
-0.103632 0.034817 35.000000 190 43 53
-0.059544 -0.003587 35.000000 190 43 53
-0.225315 0.084852 35.000000 190 43 53
-0.225315 -0.254139 35.000000 190 43 53
-0.183207 0.034817 35.000000 190 43 53
0.062927 0.084852 35.000000 190 43 53
0.064382 -0.139718 35.000000 190 43 53
0.095690 0.084852 35.000000 190 43 53
0.204843 -0.254139 35.000000 190 43 53
0.278549 -0.204243 35.000000 190 43 53
0.204843 -0.222414 35.000000 190 43 53
0.131137 -0.204243 35.000000 190 43 53
0.095690 -0.141885 35.000000 190 43 53
0.345304 -0.139718 35.000000 227 62 32
0.313997 -0.141885 35.000000 227 62 32
0.278549 -0.204243 35.000000 227 62 32
0.346760 0.084852 35.000000 227 62 32
0.313997 0.084852 35.000000 227 62 32
0.204843 -0.254139 35.000000 227 62 32
0.204843 -0.222414 35.000000 227 62 32
0.131137 -0.204243 35.000000 227 62 32
0.416281 -0.165618 35.000000 190 43 53
0.563649 -0.165618 35.000000 190 43 53
0.563649 -0.123447 35.000000 190 43 53
0.620339 0.084852 35.000000 227 62 32
0.620339 -0.255988 35.000000 227 62 32
0.662510 0.084852 35.000000 227 62 32
0.799178 -0.257188 35.000000 227 62 32
0.919699 -0.146236 35.000000 227 62 32
0.801933 -0.213155 35.000000 227 62 32
0.707899 -0.137714 35.000000 227 62 32
0.919699 -0.146236 35.000000 190 43 53
0.841115 -0.051202 35.000000 190 43 53
0.817595 -0.100103 35.000000 190 45 55
0.766730 -0.063526 35.000000 190 43 53
0.817595 -0.100103 35.000000 190 43 53
0.707899 -0.137714 35.000000 190 43 53
0.861675 0.056642 35.000000 190 43 53
0.812888 0.084852 35.000000 190 43 53
0.801933 -0.213155 35.000000 190 43 53
0.864441 -0.142804 35.000000 190 43 53
0.757519 -0.121468 35.000000 190 43 53
0.817595 -0.100103 35.000000 227 62 32
0.864441 -0.142804 35.000000 227 62 32
0.766730 -0.063526 35.000000 227 62 32
-0.704561 -0.254139 35.000000 190 43 53
-0.806272 0.044216 35.000000 190 43 53
-0.847327 0.084852 35.000000 190 43 53
-0.694461 0.084852 35.000000 190 43 53
-0.704561 -0.254139 35.000000 227 62 32
-0.295785 -0.216101 35.000000 190 43 53
-0.418024 -0.254139 35.000000 190 43 53
-0.295785 0.017387 35.000000 190 43 53
-0.295785 0.051227 35.000000 190 43 53
-0.225315 -0.254139 35.000000 227 62 32
-0.072449 0.084852 35.000000 190 43 53
0.095690 0.084852 35.000000 227 62 32
0.064382 -0.139718 35.000000 227 62 32
0.095690 -0.141885 35.000000 227 62 32
0.313997 -0.141885 35.000000 190 43 53
0.345304 -0.139718 35.000000 190 43 53
0.346760 0.084852 35.000000 190 43 53
0.563649 -0.123447 35.000000 227 62 32
0.416281 -0.123447 35.000000 227 62 32
0.416281 -0.165618 35.000000 227 62 32
0.662510 0.084852 35.000000 190 43 53
0.620339 -0.255988 35.000000 190 43 53
0.662510 -0.255988 35.000000 190 43 53
-0.054958 0.337752 34.999996 68 185 4
-0.026042 0.337752 34.999996 68 185 4
-0.054958 0.368461 34.999996 68 185 4
-0.054958 0.368461 34.999996 177 243 4
-0.026042 0.337752 34.999996 177 243 4
-0.026042 0.368461 34.999996 177 243 4
-0.054958 0.276997 34.999996 68 185 4
-0.026042 0.276997 34.999996 68 185 4
-0.054958 0.307706 34.999996 68 185 4
-0.054958 0.307706 34.999996 177 243 4
-0.026042 0.276997 34.999996 177 243 4
-0.026042 0.307706 34.999996 177 243 4
-0.183207 -0.254139 35.000000 227 62 32
3 0 1 2
3 3 4 5
3 6 7 8
3 9 10 11
3 7 12 13
3 14 15 16
3 9 14 16
3 14 7 13
3 17 18 19
3 11 8 9
3 20 21 22
3 8 23 6
3 24 25 26
3 27 28 29
3 30 31 32
3 33 34 35
3 36 31 37
3 38 34 39
3 40 41 31
3 42 43 44
3 45 46 47
3 48 49 50
3 51 52 53
3 49 54 55
3 56 57 58
3 51 56 58
3 56 49 55
3 59 60 61
3 53 50 51
3 62 63 64
3 50 65 48
3 66 67 54
3 68 69 70
3 71 72 73
3 73 72 74
3 75 76 77
3 78 79 80
3 81 82 83
3 84 85 79
3 86 83 87
3 88 89 90
3 91 92 85
3 76 81 93
3 46 60 68
3 94 95 96
3 97 98 99
3 100 101 102
3 103 100 104
3 71 66 105
3 106 107 108
3 109 110 111
3 112 113 114
3 115 116 117
3 118 119 120
3 121 122 123
3 124 125 126
3 127 128 129
3 125 130 131
3 132 133 134
3 127 132 134
3 132 125 131
3 135 136 137
3 129 126 127
3 138 139 140
3 126 141 124
3 142 131 143
3 144 122 145
3 146 147 148
3 149 150 151
3 152 153 147
3 149 154 155
3 156 157 158
3 159 160 161
3 162 163 157
3 159 164 165
3 166 167 168
3 169 170 171
3 170 172 173
3 174 170 173
3 175 176 177
3 178 171 179
3 180 181 182
3 171 183 169
3 184 185 172
3 186 187 188
3 189 190 191
3 191 190 192
3 167 176 186
3 193 194 195
3 196 193 197
3 189 184 198
3 199 200 201
3 202 203 204
3 205 206 207
3 208 209 210
3 206 211 212
3 213 214 215
3 208 213 215
3 213 206 212
3 216 217 218
3 210 207 208
3 219 220 221
3 207 222 205
3 219 201 223
3 224 209 225
3 226 201 227
3 228 229 230
3 231 232 233
3 232 234 235
3 236 232 235
3 237 238 239
3 240 233 241
3 242 243 244
3 233 245 231
3 246 247 234
3 248 249 250
3 251 252 253
3 253 252 254
3 229 238 248
3 255 256 257
3 258 255 259
3 251 246 260
3 261 262 263
3 264 263 265
3 266 267 268
3 265 269 270
3 271 272 273
3 274 270 275
3 276 277 278
3 279 280 281
3 282 273 283
3 284 285 286
3 287 288 289
3 290 291 285
3 271 292 278
3 293 289 288
3 294 295 296
3 297 298 299
3 296 300 301
3 302 301 303
3 287 304 305
3 306 307 308
3 309 310 311
3 312 313 314
3 310 315 316
3 317 318 319
3 320 321 318
3 322 323 324
3 325 326 327
3 328 329 330
3 331 332 333
3 334 331 333
3 335 336 337
3 336 338 339
3 340 341 342
3 343 335 344
3 343 345 340
3 346 347 332
3 346 348 334
3 279 268 349
3 350 351 267
3 352 350 280
3 274 261 353
3 354 290 355
3 286 356 357
3 358 299 295
3 359 308 304
3 360 361 362
3 363 364 365
3 366 367 368
3 369 370 371
3 372 373 374
3 375 376 377
3 378 379 380
3 381 382 383
3 358 384 299
