# Blender v2.79 (sub 0) OBJ File: 'Credit.blend'
# www.blender.org
o Plane
v -9.146296 0.000000 0.621250
v -9.146296 0.000000 -2.507100
v -6.548643 0.000000 -0.841800
v -6.548643 0.000000 0.621250
v -6.111341 0.000000 0.621250
v -5.853092 0.000000 -0.004908
v -5.129995 0.000000 -0.841800
v -6.221528 0.000000 -0.841800
v -6.131308 0.000000 -0.608836
v -5.916794 0.000000 -0.841800
v -2.752798 0.000000 0.621250
v -2.316644 0.000000 -0.841800
v -2.752798 0.000000 -1.367086
v -2.752798 0.000000 -0.940344
v -2.316644 0.000000 -1.367086
v -2.316644 0.000000 -0.940344
v -3.469536 0.000000 -0.841800
v -3.841866 0.000000 0.157189
v -4.470668 0.000000 0.157189
v -3.841866 0.000000 -0.841800
v -4.158440 -0.000000 2.133910
v -4.023560 -0.000000 1.262035
v -2.222597 0.000000 0.621250
v -1.792811 0.000000 -0.841800
v -0.764018 0.000000 0.621250
v -1.496303 0.000000 0.174697
v -2.222597 0.000000 -0.841800
v -1.015601 0.000000 -0.841800
v -1.415437 0.000000 0.621250
v -1.779333 0.000000 0.621250
v -5.032619 0.000000 0.621250
v -4.596464 0.000000 -0.841800
v -5.032619 0.000000 -1.367086
v -4.596464 0.000000 -0.940344
v -0.231145 0.000000 -0.841800
v 0.703197 0.000000 -0.372829
v -0.752510 0.000000 0.082141
v 0.184074 0.000000 -0.841800
v 0.703197 0.000000 0.628468
v 0.418355 0.000000 0.624054
v 0.362541 0.000000 0.434844
v 0.802302 0.000000 0.618745
v 1.238286 0.000000 -2.328090
v 1.453717 0.000000 0.618745
v 1.238286 0.000000 0.188244
v 1.520685 0.000000 0.618745
v 1.956669 0.000000 -2.328090
v 2.172100 0.000000 0.618745
v 2.172100 0.000000 0.188244
v 1.956669 0.000000 0.188244
v 3.908755 0.000000 0.157189
v 2.916680 0.000000 0.157189
v 3.908755 0.000000 -0.841800
v 2.916680 0.000000 -0.841800
v 3.289009 0.000000 1.262035
v 3.908755 0.000000 1.262035
v 3.175241 -0.000000 1.609775
v 3.447672 -0.000000 2.133910
v 2.600106 -0.000000 2.133910
v 2.734986 -0.000000 1.262035
v 2.271935 -0.000000 1.262035
v 5.865638 0.000000 -0.841800
v 5.865638 0.000000 0.785303
v 6.485383 0.000000 -0.213173
v 5.493307 0.000000 -2.333677
v 7.314459 0.000000 0.785303
v 7.686789 0.000000 0.785303
v 8.306534 0.000000 -0.841800
v 7.686789 0.000000 -0.841800
v 7.314459 0.000000 -0.841800
v 8.306534 0.000000 1.262035
v 7.573019 -0.000000 1.609775
v 7.132765 -0.000000 1.262035
v -9.146296 0.000000 -1.880540
v -7.306525 0.000000 0.621250
v -7.306525 0.000000 -1.880540
v -7.306525 0.000000 -2.507100
v -7.306525 0.000000 -0.042784
v -6.679966 0.000000 -0.042784
v -2.752798 0.000000 -0.841800
v -2.316644 0.000000 0.621250
v -2.849791 0.000000 0.157189
v -2.849791 0.000000 -0.213173
v -4.470668 0.000000 -0.213173
v -3.469536 0.000000 -0.213173
v -2.849791 0.000000 1.262035
v -3.469536 0.000000 1.262035
v -3.469536 0.000000 0.785303
v -3.310873 -0.000000 2.133910
v -3.583305 -0.000000 1.609775
v -3.884336 -0.000000 1.616907
v -4.486610 -0.000000 1.262035
v -5.032619 0.000000 -0.841800
v -4.596464 0.000000 0.621250
v -5.032619 0.000000 -0.940344
v -4.596464 0.000000 -1.367086
v 0.184074 0.000000 -0.372829
v -0.231145 0.000000 0.621250
v 0.184074 0.000000 0.628468
v -0.752510 0.000000 -0.372829
v 0.696596 0.000000 0.072414
v 0.802302 0.000000 -2.328090
v 1.453717 0.000000 0.188244
v 1.238286 0.000000 0.618745
v 1.520685 0.000000 -2.328090
v 1.956669 0.000000 0.618745
v -9.775098 0.000000 -0.042784
v -9.775098 0.000000 -1.880540
v -6.679966 0.000000 -1.880540
v -9.146296 0.000000 -0.042784
v -3.469536 0.000000 0.157189
v -3.841866 0.000000 -0.213173
v -3.841866 0.000000 0.785303
v -1.684990 0.000000 -0.261079
v -1.765855 0.000000 0.183682
v 0.184074 0.000000 0.082141
v -0.231145 0.000000 0.082141
v -0.231145 0.000000 -0.372829
v 2.287878 0.000000 0.157189
v 2.287878 0.000000 -0.841800
v 3.289009 0.000000 0.785303
v 2.874210 -0.000000 1.616907
v 3.289009 0.000000 0.157189
v 3.289009 0.000000 -0.841800
v 2.916680 0.000000 0.785303
v 5.493307 0.000000 -0.841800
v 6.485383 0.000000 0.157189
v 4.865513 0.000000 0.157189
v 5.493307 0.000000 0.157189
v 4.865513 0.000000 -0.213173
v 5.865638 0.000000 -0.213173
v 5.865638 0.000000 0.157189
v 5.493307 0.000000 -0.213173
v 5.493307 0.000000 0.785303
v 4.865513 0.000000 -0.841800
v 4.865513 0.000000 -2.333677
v 8.306534 0.000000 0.157189
v 6.685657 0.000000 0.157189
v 7.314459 0.000000 0.157189
v 6.685658 0.000000 -0.841800
v 7.686789 0.000000 1.262035
v 7.845451 -0.000000 2.133910
v 6.997885 -0.000000 2.133910
v 7.271988 -0.000000 1.616907
v 6.669714 -0.000000 1.262035
v 7.686789 0.000000 0.157189
v -6.548643 0.000000 0.621250
v -6.548643 0.000000 -0.841800
v -2.752798 0.000000 -0.841800
v -2.316644 0.000000 0.621250
v -2.752798 0.000000 -0.940344
v -2.316644 0.000000 -1.367086
v -5.853092 0.000000 -0.004908
v -5.853092 0.000000 -0.004908
v -5.853092 0.000000 -0.004908
v -5.853092 0.000000 -0.004908
v -3.583305 -0.000000 1.609775
v -3.884336 -0.000000 1.616907
v -3.884336 -0.000000 1.616907
v -3.884336 -0.000000 1.616907
v -4.486610 -0.000000 1.262035
v -2.849791 0.000000 1.262035
v -2.849791 0.000000 1.262035
v -3.469536 0.000000 0.785303
v -3.469536 0.000000 0.785303
v -3.469536 0.000000 0.785303
v -5.032619 0.000000 -0.841800
v -4.596464 0.000000 0.621250
v -5.032619 0.000000 -0.940344
v -4.596464 0.000000 -1.367086
v -0.231145 0.000000 0.621250
v -0.231145 0.000000 0.621250
v 0.184074 0.000000 0.628468
v 0.418355 0.000000 0.624054
v 0.802302 0.000000 -2.328090
v 1.453717 0.000000 0.188244
v 1.238286 0.000000 0.618745
v 1.238286 0.000000 0.618745
v 1.238286 0.000000 0.618745
v 1.520685 0.000000 -2.328090
v 1.956669 0.000000 0.618745
v 1.956669 0.000000 0.618745
v 1.956669 0.000000 0.618745
v 2.172100 0.000000 0.188244
v -9.146296 0.000000 -2.507100
v -9.146296 0.000000 -1.880540
v -9.146296 0.000000 -1.880540
v -9.146296 0.000000 -1.880540
v -5.916794 0.000000 -0.841800
v -3.469536 0.000000 -0.213173
v -3.469536 0.000000 -0.213173
v -3.469536 0.000000 -0.213173
v -3.469536 0.000000 0.157189
v -3.469536 0.000000 0.157189
v -3.469536 0.000000 0.157189
v 0.184074 0.000000 0.082141
v 0.184074 0.000000 0.082141
v 0.184074 0.000000 0.082141
v 0.696596 0.000000 0.072414
v 0.696596 0.000000 0.072414
v 0.696596 0.000000 0.072414
v 0.696596 0.000000 0.072414
v 2.287878 0.000000 -0.841800
v 2.287878 0.000000 0.157189
v 2.271935 -0.000000 1.262035
v 2.600106 -0.000000 2.133910
v 3.289009 0.000000 -0.841800
v 2.916680 0.000000 0.785303
v 2.916680 0.000000 0.785303
v 3.289009 0.000000 0.785303
v 3.289009 0.000000 0.785303
v 3.289009 0.000000 0.785303
v 4.865513 0.000000 0.157189
v 5.493307 0.000000 0.157189
v 5.493307 0.000000 0.157189
v 5.493307 0.000000 0.157189
v 4.865513 0.000000 -0.213173
v 4.865513 0.000000 -0.213173
v 4.865513 0.000000 -0.213173
v 5.865638 0.000000 0.157189
v 5.865638 0.000000 0.157189
v 5.865638 0.000000 0.157189
v 5.493307 0.000000 0.785303
v 5.493307 0.000000 0.785303
v 5.493307 0.000000 -0.841800
v 5.493307 0.000000 -0.841800
v 5.493307 0.000000 -0.841800
v 5.493307 0.000000 -0.841800
v 4.865513 0.000000 -0.841800
v 4.865513 0.000000 -2.333677
v 8.306534 0.000000 0.157189
v 8.306534 0.000000 0.157189
v 8.306534 0.000000 0.157189
v 6.685658 0.000000 -0.841800
v 6.685657 0.000000 0.157189
v 7.686789 0.000000 1.262035
v 7.686789 0.000000 1.262035
v 7.573019 -0.000000 1.609775
v 6.669714 -0.000000 1.262035
v 7.271988 -0.000000 1.616907
v 7.271988 -0.000000 1.616907
v 7.271988 -0.000000 1.616907
v 7.686789 0.000000 -0.841800
v 7.686789 0.000000 0.157189
v 7.686789 0.000000 0.157189
v 7.686789 0.000000 0.157189
v 7.314459 0.000000 0.157189
v 7.314459 0.000000 0.157189
v 7.314459 0.000000 0.157189
v -7.306525 0.000000 -1.880540
v -7.306525 0.000000 -1.880540
v -7.306525 0.000000 -1.880540
v -7.306525 0.000000 -2.507100
v -7.306525 0.000000 -2.507100
v -3.469536 0.000000 -0.841800
v -3.469536 0.000000 -0.841800
v -3.841866 0.000000 -0.213173
v -3.841866 0.000000 -0.213173
v -3.841866 0.000000 -0.213173
v -4.470668 0.000000 0.157189
v -3.841866 0.000000 0.157189
v -3.841866 0.000000 0.157189
v -3.841866 0.000000 0.157189
v -1.684990 0.000000 -0.261079
v -1.684990 0.000000 -0.261079
v -1.684990 0.000000 -0.261079
v -2.222597 0.000000 -0.841800
v -2.222597 0.000000 -0.841800
v -1.015601 0.000000 -0.841800
v -1.015601 0.000000 -0.841800
v -1.415437 0.000000 0.621250
v 0.184074 0.000000 -0.841800
v 0.184074 0.000000 -0.841800
v -0.231145 0.000000 -0.372829
v -0.231145 0.000000 -0.372829
v -0.231145 0.000000 -0.372829
v 3.447672 -0.000000 2.133910
v 3.447672 -0.000000 2.133910
v 3.447672 -0.000000 2.133910
v 3.175241 -0.000000 1.609775
v 8.306534 0.000000 1.262035
v 8.306534 0.000000 1.262035
v 7.686789 0.000000 0.785303
v 7.686789 0.000000 0.785303
v 7.686789 0.000000 0.785303
v -9.775098 0.000000 -1.880540
v -9.775098 0.000000 -1.880540
v -3.841866 0.000000 -0.841800
v -2.849791 0.000000 0.157189
v -2.849791 0.000000 0.157189
v -2.849791 0.000000 0.157189
v -2.849791 0.000000 -0.213173
v -4.470668 0.000000 -0.213173
v -4.470668 0.000000 -0.213173
v -3.469536 0.000000 1.262035
v -3.469536 0.000000 1.262035
v -3.310873 -0.000000 2.133910
v -3.310873 -0.000000 2.133910
v -3.310873 -0.000000 2.133910
v -4.158440 -0.000000 2.133910
v -2.222597 0.000000 0.621250
v 0.184074 0.000000 -0.372829
v 0.184074 0.000000 -0.372829
v 0.184074 0.000000 -0.372829
v 0.703197 0.000000 -0.372829
v -0.752510 0.000000 -0.372829
v -0.752510 0.000000 -0.372829
v -0.752510 0.000000 0.082141
v -7.306525 0.000000 0.621250
v -7.306525 0.000000 -0.042784
v -7.306525 0.000000 -0.042784
v -7.306525 0.000000 -0.042784
v -9.146296 0.000000 -0.042784
v -9.146296 0.000000 -0.042784
v -9.146296 0.000000 -0.042784
v -9.775098 0.000000 -0.042784
v -9.146296 0.000000 0.621250
v -9.146296 0.000000 0.621250
v -3.841866 0.000000 0.785303
v -3.841866 0.000000 0.785303
v -1.496303 0.000000 0.174697
v -1.496303 0.000000 0.174697
v -1.765855 0.000000 0.183682
v -1.765855 0.000000 0.183682
v -1.765855 0.000000 0.183682
v -0.231145 0.000000 -0.841800
v -0.231145 0.000000 0.082141
v -0.231145 0.000000 0.082141
v -0.231145 0.000000 0.082141
v 3.908755 0.000000 0.157189
v 3.908755 0.000000 0.157189
v 3.908755 0.000000 0.157189
v 2.916680 0.000000 0.157189
v 2.916680 0.000000 0.157189
v 2.916680 0.000000 0.157189
v 3.908755 0.000000 1.262035
v 3.908755 0.000000 1.262035
v 3.289009 0.000000 1.262035
v 3.289009 0.000000 1.262035
v 2.874210 -0.000000 1.616907
v 2.874210 -0.000000 1.616907
v 2.874210 -0.000000 1.616907
v 3.289009 0.000000 0.157189
v 3.289009 0.000000 0.157189
v 3.289009 0.000000 0.157189
v 5.865638 0.000000 -0.841800
v 5.865638 0.000000 -0.841800
v 6.485383 0.000000 0.157189
v 6.485383 0.000000 0.157189
v 6.485383 0.000000 -0.213173
v 5.865638 0.000000 -0.213173
v 5.865638 0.000000 -0.213173
v 5.865638 0.000000 -0.213173
v 5.865638 0.000000 0.785303
v 5.493307 0.000000 -0.213173
v 5.493307 0.000000 -0.213173
v 5.493307 0.000000 -0.213173
v 7.845451 -0.000000 2.133910
v 7.845451 -0.000000 2.133910
v 7.845451 -0.000000 2.133910
v 6.997885 -0.000000 2.133910
v 7.314459 0.000000 0.785303
v 7.314459 0.000000 0.785303
v -6.679966 0.000000 -1.880540
v -6.679966 0.000000 -0.042784
v -6.679966 0.000000 -0.042784
vn 0.0000 1.0000 0.0000
s off
f 186//1 254//1 185//1
f 251//1 365//1 364//1
f 318//1 311//1 314//1
f 187//1 2//1 286//1
f 310//1 309//1 366//1
f 250//1 109//1 253//1
f 74//1 76//1 77//1
f 252//1 312//1 79//1
f 1//1 75//1 78//1
f 287//1 313//1 188//1
f 108//1 107//1 315//1
f 110//1 316//1 317//1
f 80//1 150//1 12//1
f 13//1 14//1 152//1
f 5//1 155//1 147//1
f 4//1 154//1 3//1
f 148//1 153//1 8//1
f 9//1 6//1 10//1
f 7//1 189//1 156//1
f 257//1 255//1 288//1
f 192//1 289//1 292//1
f 319//1 195//1 263//1
f 112//1 20//1 84//1
f 194//1 165//1 290//1
f 191//1 83//1 256//1
f 259//1 85//1 17//1
f 190//1 193//1 82//1
f 320//1 166//1 111//1
f 294//1 262//1 258//1
f 293//1 260//1 261//1
f 18//1 19//1 113//1
f 295//1 162//1 164//1
f 163//1 87//1 298//1
f 299//1 159//1 300//1
f 21//1 91//1 92//1
f 25//1 269//1 271//1
f 24//1 267//1 264//1
f 266//1 27//1 325//1
f 23//1 115//1 268//1
f 30//1 324//1 301//1
f 29//1 28//1 321//1
f 322//1 114//1 323//1
f 270//1 265//1 26//1
f 291//1 88//1 86//1
f 81//1 149//1 11//1
f 15//1 151//1 16//1
f 158//1 297//1 157//1
f 161//1 160//1 22//1
f 89//1 296//1 90//1
f 93//1 168//1 32//1
f 33//1 169//1 96//1
f 94//1 167//1 31//1
f 170//1 95//1 34//1
f 274//1 272//1 326//1
f 303//1 202//1 36//1
f 172//1 198//1 329//1
f 118//1 35//1 307//1
f 196//1 99//1 199//1
f 302//1 305//1 273//1
f 276//1 97//1 38//1
f 304//1 197//1 101//1
f 171//1 173//1 116//1
f 100//1 328//1 275//1
f 306//1 308//1 327//1
f 117//1 37//1 98//1
f 39//1 200//1 40//1
f 174//1 201//1 41//1
f 102//1 179//1 43//1
f 104//1 175//1 42//1
f 44//1 176//1 178//1
f 177//1 103//1 45//1
f 105//1 181//1 47//1
f 182//1 180//1 46//1
f 48//1 49//1 106//1
f 183//1 184//1 50//1
f 207//1 330//1 53//1
f 209//1 345//1 335//1
f 343//1 212//1 331//1
f 124//1 344//1 51//1
f 208//1 210//1 123//1
f 120//1 334//1 54//1
f 203//1 204//1 333//1
f 52//1 119//1 125//1
f 338//1 336//1 211//1
f 337//1 55//1 278//1
f 279//1 340//1 59//1
f 206//1 122//1 205//1
f 332//1 121//1 56//1
f 341//1 277//1 280//1
f 61//1 342//1 60//1
f 58//1 339//1 57//1
f 356//1 346//1 226//1
f 352//1 348//1 350//1
f 223//1 220//1 216//1
f 133//1 227//1 219//1
f 221//1 354//1 349//1
f 351//1 64//1 347//1
f 357//1 131//1 62//1
f 353//1 222//1 127//1
f 224//1 63//1 132//1
f 218//1 215//1 355//1
f 217//1 213//1 214//1
f 129//1 128//1 134//1
f 130//1 225//1 229//1
f 135//1 126//1 136//1
f 230//1 228//1 65//1
f 69//1 231//1 68//1
f 362//1 246//1 249//1
f 245//1 284//1 232//1
f 243//1 244//1 137//1
f 363//1 285//1 146//1
f 140//1 247//1 70//1
f 234//1 235//1 248//1
f 139//1 138//1 66//1
f 237//1 281//1 283//1
f 282//1 141//1 359//1
f 360//1 242//1 361//1
f 143//1 241//1 145//1
f 233//1 67//1 71//1
f 144//1 358//1 72//1
f 239//1 240//1 73//1
f 142//1 236//1 238//1
