# Blender v2.79 (sub 0) OBJ File: 'Port.blend'
# www.blender.org
mtllib Port.mtl
o Plane
v -2.540689 0.000000 -0.650292
v -2.164990 0.000000 -0.650292
v -2.540689 0.000000 -1.025991
v -1.405885 0.000000 -0.650292
v -1.044407 0.000000 -0.650292
v -1.044407 0.000000 -1.032426
v -2.164990 0.000000 -0.336580
v -1.405885 0.000000 -0.336580
v -1.044407 0.000000 -0.336580
v -2.164990 0.000000 0.009378
v -1.044407 0.000000 0.009378
v -2.540689 0.000000 1.032426
v -2.164990 0.000000 1.032426
v -0.870427 0.000000 0.355821
v -0.526869 0.000000 0.355821
v -0.870427 0.000000 0.009378
v -0.199349 0.000000 0.355821
v 0.131204 0.000000 0.355821
v 0.131204 0.000000 0.009378
v -0.870427 0.000000 0.714990
v -0.526869 0.000000 0.714990
v -0.199349 0.000000 0.714990
v 0.131204 0.000000 0.714990
v -0.870427 0.000000 1.032426
v 0.131204 0.000000 1.032426
v 0.291468 0.000000 0.366149
v 0.635025 0.000000 0.366149
v 0.291468 0.000000 0.019706
v 1.293099 0.000000 0.366149
v 1.293099 0.000000 0.019706
v 1.785623 0.000000 0.009378
v 0.291468 0.000000 1.032426
v 0.635025 0.000000 1.032426
v 1.785623 0.000000 -0.336580
v 1.785623 0.000000 -0.650292
v 1.409924 0.000000 -0.650292
v 1.409924 0.000000 1.032426
v 1.785623 0.000000 1.032426
v 1.785623 0.000000 0.664488
v 2.540689 0.000000 1.032426
v 2.540689 0.000000 0.664488
v 2.405855 0.000000 0.009378
v 2.405855 0.000000 -0.336580
vn 0.0000 1.0000 0.0000
usemtl None
s off
f 4//1 9//1 5//1
f 9//1 10//1 11//1
f 15//1 17//1 19//1
f 14//1 21//1 15//1
f 17//1 23//1 18//1
f 35//1 36//1 37//1
f 38//1 41//1 39//1
f 31//1 43//1 34//1
f 2//1 12//1 13//1
f 23//1 24//1 25//1
f 27//1 32//1 33//1
f 3//1 5//1 6//1
f 3//1 1//1 5//1
f 4//1 8//1 9//1
f 9//1 7//1 10//1
f 16//1 14//1 15//1
f 17//1 18//1 19//1
f 16//1 15//1 19//1
f 14//1 20//1 21//1
f 17//1 22//1 23//1
f 26//1 29//1 30//1
f 26//1 30//1 28//1
f 35//1 37//1 38//1
f 38//1 40//1 41//1
f 31//1 42//1 43//1
f 2//1 1//1 12//1
f 23//1 20//1 24//1
f 27//1 26//1 32//1
l 8 7
l 22 21
l 27 29
l 34 35
l 39 31
